REM DIRINDEX 1\2,1\3,1\4,1\5
REM DIRNAME cjc044,folder01,folder02,folder03,folder04
TITLE ""
FILE "1800_067.mp3" MP3
  TRACK 01 AUDIO
    TITLE "2:cjc044_1661"
    INDEX 01 00:00:00
  TRACK 02 AUDIO
    TITLE "0:"
    INDEX 01 00:01:05
  TRACK 03 AUDIO
    TITLE "3:cjc044_1662"
    INDEX 01 00:01:69
  TRACK 04 AUDIO
    TITLE "0:"
    INDEX 01 00:02:57
  TRACK 05 AUDIO
    TITLE "4:cjc044_1663"
    INDEX 01 00:03:41
  TRACK 06 AUDIO
    TITLE "0:"
    INDEX 01 00:04:56
  TRACK 07 AUDIO
    TITLE "5:cjc044_1664"
    INDEX 01 00:05:30
  TRACK 08 AUDIO
    TITLE "0:"
    INDEX 01 00:07:74
  TRACK 09 AUDIO
    TITLE "2:cjc044_1665"
    INDEX 01 00:09:53
  TRACK 10 AUDIO
    TITLE "0:"
    INDEX 01 00:11:21
  TRACK 11 AUDIO
    TITLE "3:cjc044_1666"
    INDEX 01 00:12:03
  TRACK 12 AUDIO
    TITLE "0:"
    INDEX 01 00:13:24
  TRACK 13 AUDIO
    TITLE "4:cjc044_1667"
    INDEX 01 00:14:04
  TRACK 14 AUDIO
    TITLE "0:"
    INDEX 01 00:15:48
  TRACK 15 AUDIO
    TITLE "5:cjc044_1668"
    INDEX 01 00:16:26
  TRACK 16 AUDIO
    TITLE "0:"
    INDEX 01 00:19:44
  TRACK 17 AUDIO
    TITLE "2:cjc044_1669"
    INDEX 01 00:21:25
  TRACK 18 AUDIO
    TITLE "0:"
    INDEX 01 00:22:44
  TRACK 19 AUDIO
    TITLE "3:cjc044_1670"
    INDEX 01 00:23:30
  TRACK 20 AUDIO
    TITLE "0:"
    INDEX 01 00:24:65
  TRACK 21 AUDIO
    TITLE "4:cjc044_1671"
    INDEX 01 00:25:52
  TRACK 22 AUDIO
    TITLE "0:"
    INDEX 01 00:26:69
  TRACK 23 AUDIO
    TITLE "5:cjc044_1672"
    INDEX 01 00:27:39
  TRACK 24 AUDIO
    TITLE "0:"
    INDEX 01 00:31:24
  TRACK 25 AUDIO
    TITLE "2:cjc044_1673"
    INDEX 01 00:33:07
  TRACK 26 AUDIO
    TITLE "0:"
    INDEX 01 00:34:20
  TRACK 27 AUDIO
    TITLE "3:cjc044_1674"
    INDEX 01 00:35:10
  TRACK 28 AUDIO
    TITLE "0:"
    INDEX 01 00:36:11
  TRACK 29 AUDIO
    TITLE "4:cjc044_1675"
    INDEX 01 00:36:74
  TRACK 30 AUDIO
    TITLE "0:"
    INDEX 01 00:38:14
  TRACK 31 AUDIO
    TITLE "5:cjc044_1676"
    INDEX 01 00:38:59
  TRACK 32 AUDIO
    TITLE "0:"
    INDEX 01 00:42:33
  TRACK 33 AUDIO
    TITLE "2:cjc044_1677"
    INDEX 01 00:44:18
  TRACK 34 AUDIO
    TITLE "0:"
    INDEX 01 00:45:35
  TRACK 35 AUDIO
    TITLE "3:cjc044_1678"
    INDEX 01 00:46:21
  TRACK 36 AUDIO
    TITLE "0:"
    INDEX 01 00:47:27
  TRACK 37 AUDIO
    TITLE "4:cjc044_1679"
    INDEX 01 00:48:04
  TRACK 38 AUDIO
    TITLE "0:"
    INDEX 01 00:49:23
  TRACK 39 AUDIO
    TITLE "5:cjc044_1680"
    INDEX 01 00:49:67
  TRACK 40 AUDIO
    TITLE "0:"
    INDEX 01 00:52:32
  TRACK 41 AUDIO
    TITLE "2:cjc044_1681"
    INDEX 01 00:54:17
  TRACK 42 AUDIO
    TITLE "0:"
    INDEX 01 00:55:32
  TRACK 43 AUDIO
    TITLE "3:cjc044_1682"
    INDEX 01 00:56:25
  TRACK 44 AUDIO
    TITLE "0:"
    INDEX 01 00:57:66
  TRACK 45 AUDIO
    TITLE "4:cjc044_1683"
    INDEX 01 00:58:48
  TRACK 46 AUDIO
    TITLE "0:"
    INDEX 01 00:59:65
  TRACK 47 AUDIO
    TITLE "5:cjc044_1684"
    INDEX 01 01:00:37
  TRACK 48 AUDIO
    TITLE "0:"
    INDEX 01 01:03:65
  TRACK 49 AUDIO
    TITLE "2:cjc044_1685"
    INDEX 01 01:05:54
  TRACK 50 AUDIO
    TITLE "0:"
    INDEX 01 01:06:65
  TRACK 51 AUDIO
    TITLE "3:cjc044_1686"
    INDEX 01 01:07:45
  TRACK 52 AUDIO
    TITLE "0:"
    INDEX 01 01:09:42
  TRACK 53 AUDIO
    TITLE "4:cjc044_1687"
    INDEX 01 01:10:26
  TRACK 54 AUDIO
    TITLE "0:"
    INDEX 01 01:11:35
  TRACK 55 AUDIO
    TITLE "5:cjc044_1688"
    INDEX 01 01:12:21
  TRACK 56 AUDIO
    TITLE "0:"
    INDEX 01 01:15:68
  TRACK 57 AUDIO
    TITLE "2:cjc044_1689"
    INDEX 01 01:17:51
  TRACK 58 AUDIO
    TITLE "0:"
    INDEX 01 01:18:68
  TRACK 59 AUDIO
    TITLE "3:cjc044_1690"
    INDEX 01 01:19:52
  TRACK 60 AUDIO
    TITLE "0:"
    INDEX 01 01:20:53
  TRACK 61 AUDIO
    TITLE "4:cjc044_1691"
    INDEX 01 01:21:39
  TRACK 62 AUDIO
    TITLE "0:"
    INDEX 01 01:22:56
  TRACK 63 AUDIO
    TITLE "5:cjc044_1692"
    INDEX 01 01:23:46
  TRACK 64 AUDIO
    TITLE "0:"
    INDEX 01 01:26:72
